#!OML:ASF H:\Dans Jumps\Project 1\Capture day 1\Session 1\subject.ASF
:FULLY-SPECIFIED
:DEGREES
398
root 0.104714 16.7561 0.305313 2.99211 2.02028 -0.92442
lowerback 9.24709 1.17132 -1.76283
upperback 5.51693 1.42938 1.30808
thorax 0.462509 0.657093 2.21674
lowerneck -12.1846 -1.04282 -1.84016
upperneck 29.1306 -1.73627 2.44711
head 11.5258 -0.668043 0.992784
rclavicle 1.29707e-014 -7.15625e-015
rhumerus -20.865 -15.8486 -81.0992
rradius 23.694
rwrist 38.306
rhand -23.2681 -30.059
rfingers 7.12502
rthumb 3.18422 -60.015
lclavicle 1.29707e-014 -7.15625e-015
lhumerus -18.4724 9.12424 84.4675
lradius 16.1959
lwrist 13.1157
lhand -32.001 -15.2314
lfingers 7.12502
lthumb -5.24969 14.6836
rfemur -35.1487 -1.62254 19.6126
rtibia 48.6798
rfoot -10.4866 -1.55832
rtoes 13.1151
lfemur -33.4483 4.83115 -18.3435
ltibia 47.1316
lfoot -9.21211 4.19457
ltoes 0.854612
399
root 0.10523 16.7857 0.382362 2.77087 2.25051 -1.14713
lowerback 9.59969 1.08313 -1.46618
upperback 5.76415 1.3315 1.3902
thorax 0.536015 0.611058 2.14065
lowerneck -12.1357 -1.05483 -1.82725
upperneck 29.4526 -1.77852 2.49739
head 11.6432 -0.678317 1.00639
rclavicle -1.32689e-014 -1.19271e-014
rhumerus -20.4785 -14.5698 -81.7629
rradius 23.9735
rwrist 36.9799
rhand -23.4948 -29.8202
rfingers 7.12502
rthumb 2.96527 -59.7793
lclavicle -1.32689e-014 -1.19271e-014
lhumerus -18.4195 7.08091 85.302
lradius 16.4049
lwrist 14.0621
lhand -31.3917 -14.6582
lfingers 7.12502
lthumb -4.66139 15.2705
rfemur -34.233 -1.77589 19.8356
rtibia 48.1174
rfoot -10.7251 -1.59994
rtoes 12.6093
lfemur -33.1599 4.87662 -18.1154
ltibia 47.4553
lfoot -9.00492 4.04005
ltoes -0.0744293
400
root 0.105945 16.8309 0.457328 2.83312 2.50496 -1.38276
lowerback 9.70463 0.988966 -1.16293
upperback 5.89544 1.23011 1.47466
thorax 0.624038 0.564761 2.0666
lowerneck -12.1582 -1.07618 -1.82706
upperneck 29.96 -1.83685 2.55626
head 11.8501 -0.694574 1.02488
rclavicle 3.8266e-015 -9.93923e-016
rhumerus -20.2087 -13.1187 -82.3682
rradius 24.3039
rwrist 36.1462
rhand -23.6355 -29.6639
rfingers 7.12502
rthumb 2.82941 -59.6249
lclavicle 3.8266e-015 -9.93923e-016
lhumerus -18.4684 4.95883 86.1338
lradius 16.7028
lwrist 14.6098
lhand -30.6414 -13.8432
lfingers 7.12502
lthumb -3.93683 16.1001
rfemur -33.368 -1.91738 20.0962
rtibia 47.0873
rfoot -10.8928 -1.75106
rtoes 12.4951
lfemur -33.0901 4.94144 -17.9036
ltibia 47.5179
lfoot -8.62262 3.76046
ltoes -0.581434
401
root 0.105726 16.8872 0.530072 3.19464 2.76138 -1.59243
lowerback 9.55961 0.903712 -0.912812
upperback 5.91415 1.13799 1.5542
thorax 0.729458 0.522866 2.01881
lowerneck -12.2228 -1.10399 -1.83512
upperneck 30.5196 -1.90809 2.62931
head 12.0898 -0.71486 1.04906
rclavicle -1.02374e-014 -1.19271e-015
rhumerus -20.059 -11.7878 -82.8614
rradius 24.6861
rwrist 35.9752
rhand -23.6503 -29.5881
rfingers 7.12502
rthumb 2.81511 -59.5493
lclavicle -1.02374e-014 -1.19271e-015
lhumerus -18.6093 3.03019 86.9011
lradius 17.0755
lwrist 14.6228
lhand -29.8533 -12.9213
lfingers 7.12502
lthumb -3.17575 17.0348
rfemur -32.6705 -2.04105 20.3527
rtibia 45.7339
rfoot -10.9646 -1.95713
rtoes 12.7037
lfemur -33.2819 4.97352 -17.7268
ltibia 47.391
lfoot -8.12256 3.39436
ltoes -0.57309
402
root 0.103978 16.9538 0.600502 3.77659 3.00659 -1.73726
lowerback 9.2374 0.837385 -0.761387
upperback 5.85765 1.06308 1.61865
thorax 0.851067 0.487824 2.0105
lowerneck -12.3015 -1.14061 -1.86051
upperneck 31.008 -1.99769 2.73701
head 12.3081 -0.740791 1.08652
rclavicle -2.98177e-016 7.7526e-015
rhumerus -20.0249 -10.7639 -83.2334
rradius 25.1498
rwrist 36.27
rhand -23.5603 -29.623
rfingers 7.12502
rthumb 2.90202 -59.583
lclavicle -2.98177e-016 7.7526e-015
lhumerus -18.8169 1.50433 87.5533
lradius 17.4984
lwrist 14.1099
lhand -29.1696 -12.1378
lfingers 7.12502
lthumb -2.51554 17.8271
rfemur -32.1106 -2.14626 20.5571
rtibia 44.1497
rfoot -10.9267 -2.17433
rtoes 13.1327
lfemur -33.6278 4.93176 -17.5977
ltibia 47.0741
lfoot -7.55385 2.96549
ltoes -0.109349
403
root 0.100504 17.0319 0.667838 4.48862 3.22495 -1.80181
lowerback 8.81508 0.79497 -0.718931
upperback 5.76486 1.01116 1.65998
thorax 0.987738 0.461973 2.03802
lowerneck -12.3645 -1.1853 -1.88942
upperneck 31.3333 -2.10133 2.86325
head 12.4595 -0.771572 1.12845
rclavicle -1.66979e-014 -1.76918e-014
rhumerus -20.0827 -10.1298 -83.5026
rradius 25.6978
rwrist 36.6202
rhand -23.4724 -29.7383
rfingers 7.12502
rthumb 2.98691 -59.6972
lclavicle -1.66979e-014 -1.76918e-014
lhumerus -19.0675 0.461172 88.0669
lradius 17.9658
lwrist 13.2695
lhand -28.6936 -11.5898
lfingers 7.12502
lthumb -2.05578 18.3801
rfemur -31.6228 -2.20321 20.68
rtibia 42.3934
rfoot -10.7486 -2.38679
rtoes 13.6402
lfemur -33.9925 4.80526 -17.5111
ltibia 46.5295
lfoot -6.93924 2.49113
ltoes 0.687778
404
root 0.0958421 17.1208 0.732859 5.24408 3.39362 -1.82312
lowerback 8.36168 0.781545 -0.733443
upperback 5.66105 0.993391 1.67983
thorax 1.12866 0.452057 2.07263
lowerneck -12.3846 -1.23825 -1.91217
upperneck 31.4582 -2.21622 2.99466
head 12.5209 -0.807106 1.16783
rclavicle -8.24956e-015 -1.2921e-014
rhumerus -20.222 -9.85627 -83.7041
rradius 26.3162
rwrist 36.5854
rhand -23.4863 -29.8966
rfingers 7.12502
rthumb 2.97348 -59.8556
lclavicle -8.24956e-015 -1.2921e-014
lhumerus -19.3524 -0.166039 88.4495
lradius 18.4652
lwrist 12.4553
lhand -28.5123 -11.3546
lfingers 7.12502
lthumb -1.88071 18.6169
rfemur -31.1398 -2.23612 20.7585
rtibia 40.5147
rfoot -10.413 -2.53076
rtoes 14.1437
lfemur -34.2462 4.61344 -17.4156
ltibia 45.7237
lfoot -6.29394 1.99286
ltoes 1.5657
405
root 0.0903994 17.2174 0.796136 5.99328 3.4947 -1.80845
lowerback 7.90542 0.798981 -0.786581
upperback 5.56787 1.01412 1.67314
thorax 1.28105 0.460572 2.09896
lowerneck -12.3695 -1.29885 -1.91823
upperneck 31.3919 -2.34201 3.12628
head 12.4966 -0.846837 1.20078
rclavicle 5.96354e-015 1.2921e-014
rhumerus -20.416 -9.84333 -83.877
rradius 26.9843
rwrist 35.9194
rhand -23.6538 -30.0507
rfingers 7.12502
rthumb 2.81175 -60.0119
lclavicle 5.96354e-015 1.2921e-014
lhumerus -19.67 -0.503463 88.7263
lradius 19.0291
lwrist 12.0568
lhand -28.6238 -11.2954
lfingers 7.12502
lthumb -1.98839 18.675
rfemur -30.6436 -2.24667 20.7987
rtibia 38.5784
rfoot -9.91271 -2.59376
rtoes 14.5749
lfemur -34.3217 4.3734 -17.3042
ltibia 44.6548
lfoot -5.62472 1.50238
ltoes 2.28135
406
root 0.0852453 17.3188 0.858614 6.70889 3.50659 -1.7625
lowerback 7.47187 0.84779 -0.862078
upperback 5.48252 1.07564 1.63532
thorax 1.428 0.489277 2.1033
lowerneck -12.3164 -1.36272 -1.90455
upperneck 31.1775 -2.46901 3.24412
head 12.4033 -0.888059 1.22316
rclavicle 1.08338e-014 1.98785e-016
rhumerus -20.663 -9.95472 -84.0433
rradius 27.6567
rwrist 34.6764
rhand -23.9733 -30.1482
rfingers 7.12502
rthumb 2.50313 -60.1133
lclavicle 1.08338e-014 1.98785e-016
lhumerus -20.036 -0.696479 88.9321
lradius 19.6584
lwrist 12.3726
lhand -28.9961 -11.43
lfingers 7.12502
lthumb -2.34799 18.5368
rfemur -30.1415 -2.2196 20.8018
rtibia 36.6601
rfoot -9.25923 -2.59024
rtoes 14.958
lfemur -34.2049 4.1046 -17.1827
ltibia 43.3615
lfoot -4.9376 1.05447
ltoes 2.77803
407
root 0.0812726 17.4203 0.920904 7.38099 3.42057 -1.68934
lowerback 7.06456 0.921326 -0.957225
upperback 5.40688 1.16968 1.57107
thorax 1.56969 0.533993 2.09002
lowerneck -12.2447 -1.42073 -1.87159
upperneck 30.8692 -2.58091 3.33588
head 12.2674 -0.924971 1.23329
rclavicle -3.27995e-015 3.77691e-015
rhumerus -20.9312 -10.0518 -84.2138
rradius 28.2874
rwrist 33.1084
rhand -24.344 -30.1713
rfingers 7.12502
rthumb 2.14517 -60.1402
lclavicle -3.27995e-015 3.77691e-015
lhumerus -20.4392 -0.81712 89.0914
lradius 20.341
lwrist 13.5332
lhand -29.5018 -11.6838
lfingers 7.12502
lthumb -2.83635 18.2771
rfemur -29.6675 -2.19193 20.7806
rtibia 34.8415
rfoot -8.48871 -2.50614
rtoes 15.3426
lfemur -33.9228 3.8203 -17.0622
ltibia 41.9113
lfoot -4.23631 0.683801
ltoes 3.00709
408
root 0.0792702 17.5188 0.983398 7.9848 3.24703 -1.62616
lowerback 6.70359 1.00924 -1.02966
upperback 5.34041 1.28467 1.49299
thorax 1.69541 0.589994 2.04901
lowerneck -12.1652 -1.46877 -1.84932
upperneck 30.5336 -2.67189 3.42035
head 12.1194 -0.955606 1.24518
rclavicle 1.75924e-014 1.05356e-014
rhumerus -21.2105 -10.037 -84.3894
rradius 28.8425
rwrist 31.567
rhand -24.6239 -30.1369
rfingers 7.12502
rthumb 1.8748 -60.1085
lclavicle 1.75924e-014 1.05356e-014
lhumerus -20.8705 -0.892233 89.2101
lradius 21.0347
lwrist 15.4398
lhand -29.9937 -12.1326
lfingers 7.12502
lthumb -3.31139 17.8214
rfemur -29.223 -2.17807 20.7798
rtibia 33.1847
rfoot -7.64591 -2.36573
rtoes 15.7797
lfemur -33.5013 3.51741 -16.911
ltibia 40.3867
lfoot -3.52894 0.416247
ltoes 3.0826
